<svg width="24" height="24" viewBox="0 0 24 24" fill="none" xmlns="http://www.w3.org/2000/svg">
<path d="M15 11.9999L6.50004 20.4999C5.67004 21.3299 4.33004 21.3299 3.50004 20.4999C3.3029 20.303 3.14651 20.0692 3.0398 19.8118C2.9331 19.5545 2.87817 19.2786 2.87817 18.9999C2.87817 18.7213 2.9331 18.4454 3.0398 18.188C3.14651 17.9307 3.3029 17.6968 3.50004 17.4999L12 8.99994M17.64 15L22 10.64M20.91 11.7L19.66 10.45C19.06 9.84996 18.73 9.04996 18.73 8.19996V7.33996L16.01 4.59996C15.4936 4.08058 14.8798 3.66832 14.2036 3.38688C13.5275 3.10544 12.8024 2.96036 12.07 2.95996H9L9.92 3.77996C10.5735 4.35935 11.0967 5.07066 11.4552 5.867C11.8137 6.66335 11.9994 7.52663 12 8.39996V9.95996L14 11.96H16.47L18.73 13.87" stroke="#18181B" stroke-width="2" stroke-linecap="round" stroke-linejoin="round"/>
</svg>
