<?xml version="1.0" standalone="no"?>
<!DOCTYPE svg PUBLIC "-//W3C//DTD SVG 20010904//EN"
 "http://www.w3.org/TR/2001/REC-SVG-20010904/DTD/svg10.dtd">
<svg version="1.0" xmlns="http://www.w3.org/2000/svg"
 width="1080.000000pt" height="1080.000000pt" viewBox="0 0 1080.000000 1080.000000"
 preserveAspectRatio="xMidYMid meet">

<g transform="translate(0.000000,1080.000000) scale(0.100000,-0.100000)"
fill="#000000" stroke="none">
<path d="M2814 7705 c-64 -33 -64 -32 -64 -463 l0 -390 26 -31 c14 -17 42 -35
62 -41 24 -6 370 -10 987 -10 l950 0 -85 -48 c-129 -72 -178 -108 -266 -196
-187 -188 -300 -417 -365 -741 -30 -150 -39 -342 -39 -850 0 -499 -7 -591 -54
-719 -64 -178 -207 -305 -405 -358 -114 -31 -346 -31 -454 0 -159 45 -251 110
-331 231 -91 138 -116 254 -125 589 l-6 234 -35 29 -34 29 -441 0 c-422 0
-441 -1 -473 -20 -18 -11 -37 -32 -42 -46 -13 -34 -13 -475 0 -605 21 -199 81
-423 154 -566 100 -198 297 -422 475 -541 315 -211 680 -302 1155 -289 349 9
598 67 861 199 225 113 388 260 541 489 131 196 209 424 245 716 7 56 13 519
16 1276 l5 1187 162 -2 161 -3 5 -1865 c4 -1449 8 -1870 17 -1886 7 -12 27
-27 44 -33 42 -15 1343 -15 1530 0 376 29 741 117 1014 245 238 111 391 215
596 404 351 324 571 814 629 1399 14 148 12 493 -5 651 -39 370 -170 761 -345
1030 -197 302 -459 540 -775 702 -224 115 -532 213 -810 258 -271 45 -177 43
-2370 46 -1854 4 -2083 2 -2111 -11z m4291 -958 c101 -19 195 -43 265 -68 53
-19 67 -25 155 -65 142 -64 347 -242 437 -379 163 -250 238 -536 238 -905 0
-650 -280 -1116 -793 -1319 -185 -73 -353 -99 -704 -108 l-263 -6 0 1438 0
1437 293 -5 c189 -4 320 -11 372 -20z"/>
<path d="M1990 6415 c-222 -50 -394 -234 -423 -455 -38 -285 130 -530 414
-601 114 -29 271 -23 379 14 177 62 311 202 356 372 22 81 17 228 -9 306 -59
173 -177 291 -352 350 -80 28 -272 35 -365 14z"/>
</g>
</svg>
